<svg width="51" height="51" viewBox="0 0 51 51" fill="none" xmlns="http://www.w3.org/2000/svg">
<path opacity="0.25" d="M49.2158 25.936C49.2158 39.1218 38.5266 49.811 25.3408 49.811C12.155 49.811 1.46582 39.1218 1.46582 25.936C1.46582 12.7502 12.155 2.06104 25.3408 2.06104C38.5266 2.06104 49.2158 12.7502 49.2158 25.936Z" stroke="white" stroke-width="2.25"/>
<path d="M19.9902 22.4644C21.0258 22.4644 21.8652 21.6249 21.8652 20.5894C21.8652 19.5538 21.0258 18.7144 19.9902 18.7144C18.9547 18.7144 18.1152 19.5538 18.1152 20.5894C18.1152 21.6249 18.9547 22.4644 19.9902 22.4644Z" fill="white"/>
<path d="M21.5527 23.7139H18.4277C18.2552 23.7139 18.1152 23.8539 18.1152 24.0264V33.4014C18.1152 33.5739 18.2552 33.7139 18.4277 33.7139H21.5527C21.7252 33.7139 21.8652 33.5739 21.8652 33.4014V24.0264C21.8652 23.8539 21.7252 23.7139 21.5527 23.7139Z" fill="white"/>
<path d="M30.8634 23.2833C29.5277 22.8258 27.8571 23.2277 26.8552 23.9483C26.8209 23.8139 26.6984 23.7139 26.5527 23.7139H23.4277C23.2552 23.7139 23.1152 23.8539 23.1152 24.0264V33.4014C23.1152 33.5739 23.2552 33.7139 23.4277 33.7139H26.5527C26.7252 33.7139 26.8652 33.5739 26.8652 33.4014V26.6639C27.3702 26.2289 28.0209 26.0902 28.5534 26.3164C29.0696 26.5345 29.3652 27.067 29.3652 27.7764V33.4014C29.3652 33.5739 29.5052 33.7139 29.6777 33.7139H32.8027C32.9752 33.7139 33.1152 33.5739 33.1152 33.4014V27.147C33.0796 24.5789 31.8715 23.6283 30.8634 23.2833Z" fill="white"/>
</svg>
