<svg width="51" height="51" viewBox="0 0 51 51" fill="none" xmlns="http://www.w3.org/2000/svg">
<path opacity="0.25" d="M49.5908 25.936C49.5908 39.1909 38.8457 49.936 25.5908 49.936C12.336 49.936 1.59082 39.1909 1.59082 25.936C1.59082 12.6812 12.336 1.93604 25.5908 1.93604C38.8457 1.93604 49.5908 12.6812 49.5908 25.936Z" stroke="white" stroke-width="2"/>
<path fill-rule="evenodd" clip-rule="evenodd" d="M33.1088 20.2064C33.8701 20.4079 34.4696 20.9984 34.6739 21.7468C35.0532 23.1128 35.0355 25.9607 35.0355 25.9607C35.0355 25.9607 35.0328 28.793 34.6651 30.1581C34.4581 30.9056 33.8559 31.4953 33.0955 31.6959C31.7045 32.0535 26.1395 32.0474 26.1395 32.0474C26.1395 32.0474 20.5897 32.0413 19.1845 31.6662C18.4223 31.4647 17.8227 30.8742 17.6184 30.1267C17.2543 28.7747 17.2578 25.9276 17.2578 25.9276C17.2578 25.9276 17.2614 23.0945 17.6282 21.7285C17.8343 20.981 18.4507 20.3773 19.1969 20.1776C20.5888 19.8191 26.1529 19.8252 26.1529 19.8252C26.1529 19.8252 31.7178 19.8313 33.1088 20.2064ZM24.3775 23.3181L24.373 28.5517L29.0027 25.9393L24.3775 23.3181Z" fill="white"/>
</svg>
