<svg width="51" height="51" viewBox="0 0 51 51" fill="none" xmlns="http://www.w3.org/2000/svg">
<path opacity="0.25" d="M49.7588 25.936C49.7588 39.1909 39.0136 49.936 25.7588 49.936C12.504 49.936 1.75879 39.1909 1.75879 25.936C1.75879 12.6812 12.504 1.93604 25.7588 1.93604C39.0136 1.93604 49.7588 12.6812 49.7588 25.936Z" stroke="white" stroke-width="2"/>
<path d="M23.7577 33.5948L23.735 26.5982H20.7588V23.5996H23.735V21.6006C23.735 18.9027 25.3932 17.6025 27.782 17.6025C28.9262 17.6025 29.9096 17.6884 30.1962 17.7267V20.5462L28.5395 20.5469C27.2404 20.5469 26.9888 21.1689 26.9888 22.0816V23.5996H30.6794L29.6874 26.5982H26.9888V33.5948H23.7577Z" fill="white"/>
</svg>
