<svg width="51" height="51" viewBox="0 0 51 51" fill="none" xmlns="http://www.w3.org/2000/svg">
<path opacity="0.25" d="M49.1709 25.936C49.1709 39.1909 38.4257 49.936 25.1709 49.936C11.9161 49.936 1.1709 39.1909 1.1709 25.936C1.1709 12.6812 11.9161 1.93604 25.1709 1.93604C38.4257 1.93604 49.1709 12.6812 49.1709 25.936Z" stroke="white" stroke-width="2"/>
<path d="M28.9106 23.0947C29.3893 23.0947 29.7773 22.7066 29.7773 22.228C29.7773 21.7493 29.3893 21.3613 28.9106 21.3613C28.432 21.3613 28.0439 21.7493 28.0439 22.228C28.0439 22.7066 28.432 23.0947 28.9106 23.0947Z" fill="white"/>
<path fill-rule="evenodd" clip-rule="evenodd" d="M21.5586 25.9363C21.5586 27.9278 23.1782 29.5474 25.1697 29.5474C27.1612 29.5474 28.7808 27.9278 28.7808 25.9363C28.7808 23.9448 27.1612 22.3252 25.1697 22.3252C23.1782 22.3252 21.5586 23.9448 21.5586 25.9363ZM23.3643 25.9362C23.3643 24.9404 24.174 24.1306 25.1698 24.1306C26.1656 24.1306 26.9754 24.9404 26.9754 25.9362C26.9754 26.9319 26.1656 27.7417 25.1698 27.7417C24.174 27.7417 23.3643 26.9319 23.3643 25.9362Z" fill="white"/>
<path fill-rule="evenodd" clip-rule="evenodd" d="M21.5564 33.1588H28.7786C30.6348 33.1588 32.3898 31.4038 32.3898 29.5477V22.3255C32.3898 20.4694 30.6348 18.7144 28.7786 18.7144H21.5564C19.7003 18.7144 17.9453 20.4694 17.9453 22.3255V29.5477C17.9453 31.4038 19.7003 33.1588 21.5564 33.1588ZM19.75 22.325C19.75 21.4809 20.7115 20.5195 21.5556 20.5195H28.7778C29.6219 20.5195 30.5833 21.4809 30.5833 22.325V29.5472C30.5833 30.3913 29.6219 31.3528 28.7778 31.3528H21.5556C20.6952 31.3528 19.75 30.4076 19.75 29.5472V22.325Z" fill="white"/>
</svg>
